<svg xmlns="http://www.w3.org/2000/svg" viewBox="0 0 250 250">
  <path d="M64 134c34 32 91 42 128 21 10-6 18-15 23-26-39 15-91 10-129-14-17-11-30-25-39-40-9 21-2 42 17 59z" fill="#ffd43b"/>
  <path d="M46 75c9 15 22 29 39 40 38 24 90 29 129 14 4-9 5-18 3-28-42 9-91 0-128-25-11-8-21-16-28-25-8 6-13 14-15 24z" fill="#ffe66d"/>
  <path d="M57 50c7 10 17 19 30 28 38 26 88 35 130 25-3-11-11-20-23-26-32 5-73-2-105-24-6-4-11-8-16-12-6 1-11 4-16 9z" fill="#f4c430"/>
  <rect x="188" y="77" width="16" height="28" rx="6" fill="#5c3b14"/>
  <circle cx="96" cy="117" r="10" fill="#3b2f2f"/>
  <path d="M122 145c18 10 40 12 58 4" fill="none" stroke="#8f6f00" stroke-width="7" stroke-linecap="round"/>
</svg>
