<svg xmlns="http://www.w3.org/2000/svg" viewBox="0 0 250 250">
  <defs>
    <linearGradient id="skin" x1="48" y1="48" x2="206" y2="174" gradientUnits="userSpaceOnUse">
      <stop stop-color="#fff27a"/>
      <stop offset=".52" stop-color="#ffd23f"/>
      <stop offset="1" stop-color="#efa51e"/>
    </linearGradient>
    <filter id="shadow" x="-20%" y="-20%" width="140%" height="140%">
      <feDropShadow dx="0" dy="5" stdDeviation="4" flood-color="#000" flood-opacity=".32"/>
    </filter>
  </defs>
  <g filter="url(#shadow)">
    <path d="M46 82c13 34 42 63 79 76 37 12 72 6 94-15-8 33-39 55-80 57-47 2-91-20-115-56-17-26-18-53-4-78 6 7 14 12 26 16z" fill="url(#skin)"/>
    <path d="M38 64c20 29 55 51 97 59 38 7 70 1 91-17 3 12 1 25-7 37-22 21-57 27-94 15-37-13-66-42-79-76-12-4-20-9-26-16 5-10 11-17 18-22z" fill="#ffe76a"/>
    <path d="M61 40c27 24 66 39 108 40 21 1 39-2 53-8 5 10 6 22 4 34-21 18-53 24-91 17-42-8-77-30-97-59 5-11 13-19 23-24z" fill="#f5bd2e"/>
    <path d="M48 64c18 17 48 31 82 38 32 6 59 4 78-5" fill="none" stroke="#c88412" stroke-width="7" stroke-linecap="round" opacity=".45"/>
    <rect x="191" y="72" width="20" height="35" rx="9" fill="#5f3a1f"/>
    <circle cx="94" cy="124" r="10" fill="#241812"/>
    <circle cx="98" cy="121" r="3" fill="#fff7d2"/>
    <path d="M123 154c19 11 44 12 63 1" fill="none" stroke="#6c4219" stroke-width="8" stroke-linecap="round"/>
    <path d="M72 180c-12 8-26 13-42 13" fill="none" stroke="#2d6a4f" stroke-width="10" stroke-linecap="round"/>
    <path d="M124 200c-2 13-8 24-19 33" fill="none" stroke="#2d6a4f" stroke-width="10" stroke-linecap="round"/>
  </g>
</svg>
