<svg xmlns="http://www.w3.org/2000/svg" viewBox="0 0 120 80">
  <defs>
    <linearGradient id="wing" x1="12" y1="14" x2="99" y2="63" gradientUnits="userSpaceOnUse">
      <stop stop-color="#43c6ac"/>
      <stop offset=".52" stop-color="#219ebc"/>
      <stop offset="1" stop-color="#116782"/>
    </linearGradient>
  </defs>
  <path d="M10 43c18-25 44-29 75-9 8 6 17 8 27 6-8 14-22 23-41 22-25-1-45-10-61-19z" fill="url(#wing)"/>
  <path d="M45 38c8-24 27-34 55-23-15 4-25 13-31 28z" fill="#fb8500"/>
  <path d="M31 44c20 9 39 11 60 5" fill="none" stroke="#8ecae6" stroke-width="6" stroke-linecap="round" opacity=".75"/>
  <circle cx="88" cy="34" r="5" fill="#111"/>
  <circle cx="90" cy="32" r="1.8" fill="#fff"/>
  <path d="M98 36 117 29 103 48z" fill="#ffdd57"/>
  <path d="M17 43 3 33l7 17z" fill="#0b5368"/>
</svg>
